<svg xmlns="http://www.w3.org/2000/svg" viewBox="0 0 736 1177" preserveAspectRatio="xMidYMid slice">
  <defs>
    <filter id="paper" x="-10%" y="-10%" width="120%" height="120%">
      <feTurbulence type="fractalNoise" baseFrequency="0.018" numOctaves="4" seed="8" result="noise"/>
      <feColorMatrix in="noise" type="matrix" values="0 0 0 0 0.86 0 0 0 0 0.84 0 0 0 0 0.78 0 0 0 0.32 0"/>
      <feBlend mode="multiply" in2="SourceGraphic"/>
    </filter>
    <filter id="softShadow" x="-40%" y="-40%" width="180%" height="180%">
      <feDropShadow dx="11" dy="12" stdDeviation="8" flood-color="#bda985" flood-opacity="0.28"/>
    </filter>
    <linearGradient id="paperTone" x1="0" x2="1" y1="0" y2="1">
      <stop offset="0" stop-color="#f7f8f2"/>
      <stop offset="0.55" stop-color="#f2f0e6"/>
      <stop offset="1" stop-color="#eee7d8"/>
    </linearGradient>
    <linearGradient id="mintTone" x1="0" x2="1" y1="0" y2="1">
      <stop offset="0" stop-color="#d5e9df"/>
      <stop offset="1" stop-color="#b8d4c3"/>
    </linearGradient>
    <linearGradient id="leafTone" x1="0" x2="1" y1="0" y2="1">
      <stop offset="0" stop-color="#a7c8af"/>
      <stop offset="0.62" stop-color="#5d8c63"/>
      <stop offset="1" stop-color="#315a39"/>
    </linearGradient>
  </defs>

  <rect width="736" height="1177" fill="url(#paperTone)" filter="url(#paper)"/>
  <path d="M0 460 C58 470 64 505 122 501 C88 530 128 565 104 600 C84 631 34 606 0 650 Z M0 650 C57 670 88 654 129 692 C82 707 108 752 70 781 C42 803 25 775 0 790 Z M0 790 C48 818 80 806 118 846 C72 862 99 910 59 935 C34 951 20 932 0 944 Z M0 944 C62 954 89 982 117 1029 C68 1031 88 1082 47 1097 C22 1107 9 1087 0 1092 Z" fill="url(#mintTone)" opacity="0.9" filter="url(#paper)"/>

  <g fill="none" stroke-linecap="round" stroke-linejoin="round" opacity="0.34">
    <path d="M86 4 C110 86 204 78 246 155 C284 225 359 188 412 251" stroke="#d7c8a9" stroke-width="2.2"/>
    <path d="M462 0 C419 76 439 136 384 196 C333 253 331 330 267 377" stroke="#d8c7a6" stroke-width="2"/>
    <path d="M559 622 C499 707 465 802 408 899 C383 941 353 982 302 1032" stroke="#d5c2a0" stroke-width="2.4"/>
    <path d="M630 755 C592 838 615 922 556 1009 C531 1046 490 1088 447 1124" stroke="#d6c3a1" stroke-width="1.9"/>
  </g>

  <g filter="url(#softShadow)">
    <g fill="none" stroke="#193322" stroke-linecap="round" stroke-linejoin="round">
      <path d="M42 1177 C65 1038 73 894 135 773 C178 689 219 626 285 548" stroke-width="2.7"/>
      <path d="M124 797 C168 788 197 780 232 752" stroke-width="1.7"/>
      <path d="M94 914 C133 887 175 877 213 836" stroke-width="1.8"/>
      <path d="M67 1066 C110 1039 153 1032 191 1002" stroke-width="1.7"/>
      <path d="M408 0 C487 51 567 56 647 103 C679 122 710 148 736 174" stroke-width="2.2"/>
      <path d="M474 42 C438 91 410 139 365 184" stroke-width="1.5"/>
      <path d="M556 63 C585 100 625 119 673 137" stroke-width="1.6"/>
      <path d="M632 94 C669 83 705 76 736 52" stroke-width="1.5"/>
    </g>

    <g fill="url(#leafTone)" stroke="#2f5638" stroke-width="1.1" opacity="0.95">
      <path d="M173 744 C197 718 229 717 253 738 C224 762 198 765 173 744 Z"/>
      <path d="M132 865 C159 832 193 831 219 854 C189 883 158 888 132 865 Z"/>
      <path d="M64 1026 C91 993 125 994 148 1016 C119 1043 90 1048 64 1026 Z"/>
      <path d="M216 641 C241 615 274 618 296 641 C267 664 239 666 216 641 Z"/>
      <path d="M512 69 C536 43 568 44 590 65 C563 91 535 92 512 69 Z"/>
      <path d="M623 124 C648 98 679 100 701 121 C674 146 646 148 623 124 Z"/>
      <path d="M690 169 C710 148 732 148 748 166 C727 188 706 189 690 169 Z"/>
      <path d="M445 149 C470 123 502 125 525 146 C497 172 469 173 445 149 Z"/>
    </g>

    <g fill="#f6f3e7" stroke="#d6c8ad" stroke-width="1.1" opacity="0.96">
      <path d="M246 558 C284 527 324 539 338 575 C302 600 266 594 246 558 Z"/>
      <path d="M257 583 C294 571 322 589 324 623 C287 636 260 619 257 583 Z"/>
      <path d="M104 968 C143 939 184 954 195 990 C157 1012 122 1004 104 968 Z"/>
      <path d="M101 998 C134 981 165 996 170 1028 C136 1045 109 1030 101 998 Z"/>
      <path d="M598 238 C625 211 662 215 681 246 C650 270 617 268 598 238 Z"/>
      <path d="M620 270 C650 252 684 264 694 296 C661 315 632 303 620 270 Z"/>
      <path d="M653 374 C679 348 714 353 731 383 C703 405 671 402 653 374 Z"/>
    </g>
  </g>

  <g fill="none" stroke="#efe5d3" stroke-width="3.4" opacity="0.72">
    <path d="M122 25 C174 95 158 165 203 229 C239 281 298 275 337 326"/>
    <path d="M523 910 C561 950 572 1001 626 1044 C663 1073 701 1107 724 1153"/>
    <path d="M10 213 C75 237 95 297 152 337 C203 373 253 358 293 409"/>
  </g>
  <g fill="none" stroke="#d7cdbb" stroke-width="1" opacity="0.5">
    <path d="M122 25 C154 73 142 139 203 229"/>
    <path d="M131 46 C148 87 159 127 188 164"/>
    <path d="M523 910 C559 965 603 1007 626 1044"/>
    <path d="M10 213 C67 247 106 295 152 337"/>
  </g>
</svg>
